<svg width="35" height="36" viewBox="0 0 35 36" fill="none" xmlns="http://www.w3.org/2000/svg">
<path d="M24.5255 25L17.795 28.7919H15.559L15.2493 29.0865H15L24.8277 35.6733L34.1115 30.4386L24.5255 25Z" fill="#BBBDBF"/>
<path d="M19 32.5H15L18 31H21.5L19 32.5Z" fill="#C4C4C4"/>
<path d="M24.6035 28.5531L23.9237 28.251L21.2798 29.6862L21.8841 30.0639L24.6035 28.5531Z" fill="#C15911"/>
<path d="M24.2782 20.7197H24.4746V29.6028H24.2782V20.7197Z" fill="#875350"/>
<path d="M21.3722 29.6006H21.1758V21.6844H21.3722V29.6006Z" fill="#875350"/>
<path d="M20.4694 28.269L25.0879 25.6025L25.2012 25.7988L20.5828 28.4652L20.4694 28.269Z" fill="#875350"/>
<path d="M20.2126 26.4203L24.8311 23.7539L24.9444 23.9501L20.3259 26.6166L20.2126 26.4203Z" fill="#875350"/>
<path d="M20.2888 24.2299L24.9072 21.5635L25.0205 21.7597L20.4021 24.4262L20.2888 24.2299Z" fill="#875350"/>
<path d="M23.0244 21.8145C23.0244 21.8145 23.168 22.0033 23.4248 21.8749C23.4248 21.8749 23.2586 21.6256 23.0093 21.7691" fill="#ACB559"/>
<path d="M22.2773 21.9519C22.2773 21.9519 22.0205 22.2464 22.0054 22.5486C21.9827 22.8507 21.9676 22.1558 21.5295 21.8008" stroke="#6B782B" stroke-width="1.0575" stroke-miterlimit="10"/>
<path d="M22.299 21.6119C22.299 21.6119 22.3746 21.4608 22.4879 21.5514C22.6012 21.6421 22.5408 21.8687 22.435 22.0726C22.3897 22.1708 22.367 22.2237 22.3595 22.2615C22.3595 22.2841 22.3368 22.2917 22.3217 22.2766C22.231 22.201 22.0497 22.0122 22.0346 21.8082C22.0195 21.5363 22.1631 21.4608 22.299 21.6119Z" fill="#6B782B"/>
<path d="M22.0278 21.5065C22.0278 21.5065 22.126 21.3478 22.2393 21.4612C22.3601 21.5745 22.2619 21.8086 22.126 22.0201C22.0655 22.1183 22.0353 22.1788 22.0278 22.2165C22.0202 22.2392 21.9975 22.2467 21.9824 22.2316C21.8918 22.141 21.7105 21.9219 21.7256 21.6953C21.7332 21.4007 21.8993 21.3327 22.0278 21.5065Z" fill="#A4A538"/>
<path d="M21.3467 21.4838C21.3467 21.4838 21.4902 21.4083 21.4902 21.5669C21.4902 21.7255 21.3014 21.8615 21.105 21.9597C21.0143 22.005 20.9615 22.0428 20.9388 22.0654C20.9237 22.0805 20.9086 22.073 20.9086 22.0503C20.9161 21.9219 20.9388 21.6424 21.0748 21.4611C21.2485 21.227 21.3769 21.2647 21.3467 21.4838Z" fill="#6B782B"/>
<path d="M22.3147 21.2258C22.3147 21.2258 22.1712 21.1201 22.141 21.2938C22.1107 21.4675 22.2996 21.6564 22.5036 21.7999C22.5942 21.8679 22.6471 21.9132 22.6697 21.9434C22.6848 21.9585 22.7075 21.951 22.7075 21.9283C22.7226 21.7848 22.7453 21.4675 22.6244 21.2485C22.4733 20.9539 22.3223 20.9766 22.3147 21.2258Z" fill="#A4A538"/>
<path d="M21.7166 21.1211C21.7166 21.1211 21.8903 20.9776 21.981 21.1514C22.0716 21.3251 21.8677 21.5592 21.6259 21.7481C21.5126 21.8387 21.4597 21.8992 21.4371 21.9369C21.422 21.9596 21.3918 21.9596 21.3767 21.9294C21.3087 21.7859 21.1878 21.4611 21.286 21.2042C21.422 20.8719 21.6335 20.8643 21.7166 21.1211Z" fill="#A4A538"/>
<path d="M22.0801 22.4057C22.0801 22.4057 22.2236 22.3301 22.2236 22.4888C22.2236 22.6474 22.0348 22.7834 21.8384 22.8816C21.7477 22.9269 21.6949 22.9646 21.6722 22.9873C21.6571 23.0024 21.642 22.9949 21.642 22.9722C21.6495 22.8438 21.6722 22.5643 21.8082 22.383C21.9819 22.1488 22.1103 22.1866 22.0801 22.4057Z" fill="#6B782B"/>
<path d="M23.0471 22.1399C23.0471 22.1399 22.9036 22.0341 22.8734 22.2079C22.8432 22.3816 23.032 22.5704 23.236 22.714C23.3266 22.7819 23.3795 22.8273 23.4022 22.8575C23.4173 22.8726 23.4399 22.865 23.4399 22.8424C23.455 22.6989 23.4777 22.3816 23.3568 22.1625C23.2058 21.868 23.0547 21.8906 23.0471 22.1399Z" fill="#A4A538"/>
<path d="M23.0322 22.4499C23.0322 22.4499 22.7754 22.7445 22.7603 23.0466C22.7376 23.3488 22.7225 22.6538 22.2844 22.2988" stroke="#6B782B" stroke-width="1.0575" stroke-miterlimit="10"/>
<path d="M22.2598 23.3718C22.2598 23.3718 22.0029 23.6664 21.9878 23.9685C21.9652 24.2707 21.9501 23.5757 21.5119 23.2207" stroke="#6B782B" stroke-width="1.0575" stroke-miterlimit="10"/>
<path d="M22.2902 23.0328C22.2902 23.0328 22.3658 22.8817 22.4791 22.9723C22.5924 23.063 22.532 23.2896 22.4262 23.4935C22.3809 23.5917 22.3582 23.6446 22.3507 23.6824C22.3507 23.705 22.328 23.7126 22.3129 23.6975C22.2223 23.6219 22.041 23.4331 22.0259 23.2291C22.0107 22.9572 22.1543 22.8817 22.2902 23.0328Z" fill="#6B782B"/>
<path d="M22.0112 22.9336C22.0112 22.9336 22.1094 22.775 22.2227 22.8883C22.3435 23.0016 22.2453 23.2358 22.1094 23.4473C22.0489 23.5455 22.0187 23.6059 22.0112 23.6437C22.0036 23.6663 21.9809 23.6739 21.9658 23.6588C21.8752 23.5681 21.6939 23.3491 21.709 23.1224C21.7166 22.8203 21.8827 22.7523 22.0112 22.9336Z" fill="#A4A538"/>
<path d="M21.3379 22.9115C21.3379 22.9115 21.4814 22.836 21.4814 22.9946C21.4814 23.1532 21.2926 23.2892 21.0962 23.3874C21.0055 23.4327 20.9527 23.4705 20.93 23.4932C20.9149 23.5083 20.8998 23.5007 20.8998 23.4781C20.9073 23.3496 20.93 23.0702 21.066 22.8889C21.2397 22.6547 21.3606 22.6925 21.3379 22.9115Z" fill="#6B782B"/>
<path d="M22.3059 22.6467C22.3059 22.6467 22.1624 22.541 22.1322 22.7147C22.102 22.8884 22.2908 23.0773 22.4948 23.2208C22.5854 23.2888 22.6383 23.3341 22.6609 23.3643C22.6761 23.3794 22.6987 23.3719 22.6987 23.3492C22.7138 23.2057 22.7365 22.8884 22.6156 22.6694C22.457 22.3748 22.3059 22.3974 22.3059 22.6467Z" fill="#A4A538"/>
<path d="M21.7078 22.5414C21.7078 22.5414 21.8815 22.3979 21.9722 22.5716C22.0628 22.7454 21.8589 22.9795 21.6171 23.1684C21.5038 23.259 21.451 23.3194 21.4283 23.3572C21.4132 23.3799 21.383 23.3799 21.3679 23.3496C21.2999 23.2061 21.179 22.8813 21.2772 22.6245C21.4132 22.2997 21.6247 22.2846 21.7078 22.5414Z" fill="#A4A538"/>
<path d="M22.0713 23.8256C22.0713 23.8256 22.2148 23.7501 22.2148 23.9087C22.2148 24.0673 22.026 24.2033 21.8296 24.3015C21.7389 24.3468 21.6861 24.3846 21.6634 24.4072C21.6483 24.4223 21.6332 24.4148 21.6332 24.3921C21.6407 24.2637 21.6634 23.9842 21.7994 23.8029C21.9731 23.5688 22.1015 23.6065 22.0713 23.8256Z" fill="#6B782B"/>
<path d="M23.0383 23.5619C23.0383 23.5619 22.8948 23.4561 22.8646 23.6298C22.8344 23.8036 23.0232 23.9924 23.2272 24.1359C23.3178 24.2039 23.3707 24.2492 23.3934 24.2795C23.4085 24.2946 23.4311 24.287 23.4311 24.2644C23.4462 24.1208 23.4689 23.8036 23.348 23.5845C23.1894 23.2975 23.0383 23.3126 23.0383 23.5619Z" fill="#A4A538"/>
<path d="M23.0156 23.8708C23.0156 23.8708 22.7588 24.1654 22.7437 24.4675C22.721 24.7697 22.7059 24.0747 22.2678 23.7197" stroke="#6B782B" stroke-width="1.0575" stroke-miterlimit="10"/>
<path d="M22.2014 24.9938C22.2014 24.9938 22.4582 25.2884 22.4733 25.5906C22.496 25.8927 22.5111 25.1978 22.9492 24.8428" stroke="#6B782B" stroke-width="1.0575" stroke-miterlimit="10"/>
<path d="M22.1769 24.6548C22.1769 24.6548 22.1014 24.5037 21.988 24.5944C21.8747 24.685 21.9352 24.9116 22.0409 25.1156C22.0862 25.2138 22.1089 25.2667 22.1165 25.3044C22.1165 25.3271 22.1391 25.3347 22.1542 25.3195C22.2449 25.244 22.4262 25.0552 22.4413 24.8512C22.4564 24.5793 22.3129 24.5113 22.1769 24.6548Z" fill="#6B782B"/>
<path d="M22.4577 24.5557C22.4577 24.5557 22.3595 24.3971 22.2462 24.5104C22.1253 24.6237 22.2235 24.8578 22.3595 25.0693C22.4199 25.1675 22.4501 25.228 22.4577 25.2657C22.4653 25.2884 22.4879 25.2959 22.503 25.2808C22.5937 25.1902 22.775 24.9711 22.7599 24.7445C22.7523 24.4424 22.5861 24.3744 22.4577 24.5557Z" fill="#A4A538"/>
<path d="M23.1293 24.5336C23.1293 24.5336 22.9857 24.4581 22.9857 24.6167C22.9857 24.7753 23.1746 24.9113 23.371 25.0095C23.4616 25.0548 23.5145 25.0926 23.5372 25.1152C23.5523 25.1303 23.5674 25.1228 23.5674 25.1001C23.5598 24.9717 23.5372 24.6922 23.4012 24.5109C23.2275 24.2768 23.099 24.3145 23.1293 24.5336Z" fill="#6B782B"/>
<path d="M22.1629 24.2688C22.1629 24.2688 22.3064 24.163 22.3366 24.3368C22.3669 24.5105 22.178 24.6993 21.9741 24.8429C21.8834 24.9108 21.8305 24.9562 21.8079 24.9864C21.7928 25.0015 21.7701 24.9939 21.7701 24.9713C21.755 24.8278 21.7323 24.5105 21.8532 24.2915C22.0118 23.9969 22.1629 24.0195 22.1629 24.2688Z" fill="#A4A538"/>
<path d="M22.759 24.1635C22.759 24.1635 22.5853 24.02 22.4946 24.1937C22.404 24.3674 22.6079 24.6016 22.8497 24.7904C22.963 24.8811 23.0158 24.9415 23.0385 24.9793C23.0536 25.0019 23.0838 25.0019 23.0989 24.9717C23.1669 24.8282 23.2878 24.5034 23.1896 24.2466C23.0536 23.9218 22.8421 23.9067 22.759 24.1635Z" fill="#A4A538"/>
<path d="M22.3968 25.4477C22.3968 25.4477 22.2533 25.3721 22.2533 25.5308C22.2533 25.6894 22.4422 25.8253 22.6386 25.9235C22.7292 25.9689 22.7821 26.0066 22.8047 26.0293C22.8199 26.0444 22.835 26.0368 22.835 26.0142C22.8274 25.8858 22.8047 25.6063 22.6688 25.425C22.495 25.1908 22.3666 25.2286 22.3968 25.4477Z" fill="#6B782B"/>
<path d="M21.4305 25.184C21.4305 25.184 21.574 25.0783 21.6042 25.252C21.6344 25.4257 21.4456 25.6146 21.2416 25.7581C21.151 25.8261 21.0981 25.8714 21.0755 25.9016C21.0603 25.9167 21.0377 25.9092 21.0377 25.8865C21.0226 25.743 20.9999 25.4257 21.1208 25.2067C21.2794 24.9196 21.4305 24.9423 21.4305 25.184Z" fill="#A4A538"/>
<path d="M21.4524 25.4929C21.4524 25.4929 21.7092 25.7875 21.7243 26.0896C21.747 26.3918 21.7621 25.6968 22.2002 25.3418" stroke="#6B782B" stroke-width="1.0575" stroke-miterlimit="10"/>
<path d="M22.5103 23.2354C22.5103 23.2354 22.3668 23.4242 22.1099 23.2958C22.1099 23.2958 22.2761 23.0465 22.5254 23.19" fill="#ACB559"/>
<path d="M23.2531 23.363C23.2531 23.363 23.51 23.6576 23.5251 23.9597C23.5477 24.2619 23.5628 23.5669 24.001 23.2119" stroke="#6B782B" stroke-width="1.0575" stroke-miterlimit="10"/>
<path d="M23.2296 23.024C23.2296 23.024 23.1541 22.8729 23.0408 22.9635C22.9275 23.0542 22.9879 23.2808 23.0937 23.4847C23.139 23.5829 23.1616 23.6358 23.1692 23.6736C23.1692 23.6962 23.1919 23.7038 23.207 23.6887C23.2976 23.6131 23.4789 23.4243 23.494 23.2204C23.5091 22.9484 23.3656 22.8804 23.2296 23.024Z" fill="#6B782B"/>
<path d="M23.5016 22.9248C23.5016 22.9248 23.4034 22.7662 23.2901 22.8795C23.1693 22.9928 23.2675 23.227 23.4034 23.4385C23.4639 23.5367 23.4941 23.5971 23.5016 23.6349C23.5092 23.6575 23.5319 23.6651 23.547 23.65C23.6376 23.5593 23.8189 23.3403 23.8038 23.1137C23.7962 22.8115 23.6376 22.7435 23.5016 22.9248Z" fill="#A4A538"/>
<path d="M24.181 22.9027C24.181 22.9027 24.0375 22.8272 24.0375 22.9858C24.0375 23.1445 24.2263 23.2804 24.4227 23.3786C24.5134 23.4239 24.5663 23.4617 24.5889 23.4844C24.604 23.4995 24.6191 23.4919 24.6191 23.4693C24.6116 23.3409 24.5889 23.0614 24.453 22.8801C24.2792 22.6459 24.1508 22.6837 24.181 22.9027Z" fill="#6B782B"/>
<path d="M23.2147 22.6379C23.2147 22.6379 23.3582 22.5322 23.3884 22.7059C23.4186 22.8796 23.2298 23.0685 23.0258 23.212C22.9352 23.28 22.8823 23.3253 22.8596 23.3555C22.8445 23.3706 22.8219 23.3631 22.8219 23.3404C22.8068 23.1969 22.7841 22.8796 22.905 22.6606C23.0636 22.366 23.2071 22.3887 23.2147 22.6379Z" fill="#A4A538"/>
<path d="M23.8108 22.5326C23.8108 22.5326 23.637 22.3891 23.5464 22.5628C23.4557 22.7366 23.6597 22.9707 23.9014 23.1596C24.0147 23.2502 24.0676 23.3106 24.0903 23.3484C24.1054 23.3711 24.1356 23.3711 24.1507 23.3409C24.2187 23.1973 24.3395 22.8725 24.2413 22.6157C24.1054 22.2909 23.8939 22.2758 23.8108 22.5326Z" fill="#A4A538"/>
<path d="M23.4486 23.8168C23.4486 23.8168 23.3051 23.7413 23.3051 23.8999C23.3051 24.0585 23.4939 24.1945 23.6903 24.2927C23.781 24.338 23.8338 24.3758 23.8565 24.3984C23.8716 24.4135 23.8867 24.406 23.8867 24.3833C23.8792 24.2549 23.8565 23.9754 23.7205 23.7941C23.5468 23.56 23.4184 23.5977 23.4486 23.8168Z" fill="#6B782B"/>
<path d="M22.4822 23.5532C22.4822 23.5532 22.6258 23.4474 22.656 23.6211C22.6862 23.7949 22.4974 23.9837 22.2934 24.1272C22.2027 24.1952 22.1499 24.2405 22.1272 24.2708C22.1121 24.2859 22.0894 24.2783 22.0894 24.2557C22.0743 24.1121 22.0517 23.7949 22.1725 23.5758C22.3312 23.2888 22.4747 23.3114 22.4822 23.5532Z" fill="#A4A538"/>
<path d="M22.4963 23.862C22.4963 23.862 22.7531 24.1566 22.7682 24.4587C22.7909 24.7609 22.806 24.066 23.2441 23.7109" stroke="#6B782B" stroke-width="1.0575" stroke-miterlimit="10"/>
<path d="M23.2668 24.7927C23.2668 24.7927 23.5236 25.0873 23.5388 25.3894C23.5614 25.6916 23.5765 24.9966 24.0146 24.6416" stroke="#6B782B" stroke-width="1.0575" stroke-miterlimit="10"/>
<path d="M23.2431 24.4517C23.2431 24.4517 23.1676 24.3006 23.0543 24.3913C22.941 24.4819 23.0014 24.7085 23.1072 24.9125C23.1525 25.0107 23.1752 25.0635 23.1827 25.1013C23.1827 25.124 23.2054 25.1315 23.2205 25.1164C23.3111 25.0409 23.4924 24.852 23.5075 24.6481C23.5151 24.3762 23.3716 24.3006 23.2431 24.4517Z" fill="#6B782B"/>
<path d="M23.5163 24.3463C23.5163 24.3463 23.4181 24.1877 23.3048 24.301C23.1839 24.4143 23.2821 24.6484 23.4181 24.8599C23.4785 24.9581 23.5087 25.0186 23.5163 25.0563C23.5238 25.079 23.5465 25.0865 23.5616 25.0714C23.6523 24.9808 23.8336 24.7617 23.8184 24.5351C23.8109 24.233 23.6447 24.1726 23.5163 24.3463Z" fill="#A4A538"/>
<path d="M24.1878 24.3236C24.1878 24.3236 24.0443 24.2481 24.0443 24.4067C24.0443 24.5654 24.2332 24.7013 24.4296 24.7995C24.5202 24.8448 24.5731 24.8826 24.5958 24.9053C24.6109 24.9204 24.626 24.9128 24.626 24.8902C24.6184 24.7617 24.5958 24.4823 24.4598 24.301C24.2936 24.0668 24.1652 24.1046 24.1878 24.3236Z" fill="#6B782B"/>
<path d="M23.2215 24.058C23.2215 24.058 23.365 23.9523 23.3952 24.126C23.4255 24.2998 23.2366 24.4886 23.0327 24.6321C22.942 24.7001 22.8891 24.7454 22.8665 24.7756C22.8514 24.7908 22.8287 24.7832 22.8287 24.7605C22.8136 24.617 22.7909 24.2998 22.9118 24.0807C23.0704 23.7937 23.2215 23.8163 23.2215 24.058Z" fill="#A4A538"/>
<path d="M23.8254 23.9534C23.8254 23.9534 23.6517 23.8099 23.561 23.9836C23.4704 24.1573 23.6743 24.3915 23.9161 24.5804C24.0294 24.671 24.0822 24.7314 24.1049 24.7692C24.12 24.7919 24.1502 24.7919 24.1653 24.7616C24.2333 24.6181 24.3542 24.2933 24.256 24.0365C24.12 23.7117 23.9009 23.7041 23.8254 23.9534Z" fill="#A4A538"/>
<path d="M23.4554 25.2446C23.4554 25.2446 23.3119 25.1691 23.3119 25.3277C23.3119 25.4863 23.5008 25.6223 23.6972 25.7205C23.7878 25.7658 23.8407 25.8036 23.8633 25.8263C23.8784 25.8414 23.8936 25.8338 23.8936 25.8112C23.886 25.6827 23.8633 25.4033 23.7274 25.222C23.5612 24.9802 23.4328 25.0256 23.4554 25.2446Z" fill="#6B782B"/>
<path d="M22.4891 24.9807C22.4891 24.9807 22.6326 24.875 22.6628 25.0487C22.693 25.2224 22.5042 25.4113 22.3002 25.5548C22.2096 25.6228 22.1567 25.6681 22.134 25.6983C22.1189 25.7134 22.0963 25.7058 22.0963 25.6832C22.0812 25.5397 22.0585 25.2224 22.1794 25.0034C22.338 24.7088 22.4891 24.7314 22.4891 24.9807Z" fill="#A4A538"/>
<path d="M22.5109 25.2907C22.5109 25.2907 22.7678 25.5853 22.7829 25.8875C22.8056 26.1896 22.8207 25.4947 23.2588 25.1396" stroke="#6B782B" stroke-width="1.0575" stroke-miterlimit="10"/>
<path d="M23.3281 26.4177C23.3281 26.4177 23.0713 26.7123 23.0562 27.0144C23.0335 27.3166 23.0184 26.6216 22.5803 26.2666" stroke="#6B782B" stroke-width="1.0575" stroke-miterlimit="10"/>
<path d="M23.3498 26.0767C23.3498 26.0767 23.4253 25.9256 23.5387 26.0163C23.652 26.1069 23.5915 26.3335 23.4858 26.5375C23.4405 26.6357 23.4178 26.6885 23.4102 26.7263C23.4102 26.749 23.3876 26.7565 23.3725 26.7414C23.2818 26.6659 23.1005 26.477 23.0854 26.2731C23.0703 26.0012 23.2138 25.9256 23.3498 26.0767Z" fill="#6B782B"/>
<path d="M23.0785 25.9713C23.0785 25.9713 23.1767 25.8127 23.2901 25.926C23.4109 26.0393 23.3127 26.2734 23.1767 26.4849C23.1163 26.5831 23.0861 26.6436 23.0785 26.6813C23.071 26.704 23.0483 26.7116 23.0332 26.6964C22.9426 26.6058 22.7613 26.3867 22.7764 26.1601C22.7839 25.858 22.9426 25.7976 23.0785 25.9713Z" fill="#A4A538"/>
<path d="M22.3975 25.9486C22.3975 25.9486 22.541 25.8731 22.541 26.0317C22.541 26.1904 22.3522 26.3263 22.1558 26.4245C22.0651 26.4698 22.0122 26.5076 21.9896 26.5303C21.9745 26.5454 21.9594 26.5378 21.9594 26.5152C21.9669 26.3868 21.9896 26.1073 22.1255 25.926C22.2993 25.6918 22.4277 25.7296 22.3975 25.9486Z" fill="#6B782B"/>
<path d="M23.3655 25.6916C23.3655 25.6916 23.222 25.5859 23.1917 25.7596C23.1615 25.9334 23.3504 26.1222 23.5543 26.2657C23.645 26.3337 23.6979 26.379 23.7205 26.4092C23.7356 26.4243 23.7583 26.4168 23.7583 26.3941C23.7734 26.2506 23.7961 25.9334 23.6752 25.7143C23.5166 25.4197 23.373 25.4424 23.3655 25.6916Z" fill="#A4A538"/>
<path d="M22.7674 25.5784C22.7674 25.5784 22.9411 25.4349 23.0317 25.6086C23.1224 25.7823 22.9184 26.0165 22.6767 26.2053C22.5634 26.296 22.5105 26.3564 22.4879 26.3942C22.4728 26.4169 22.4425 26.4168 22.4274 26.3866C22.3594 26.2431 22.2386 25.9183 22.3368 25.6615C22.4728 25.3367 22.6843 25.3291 22.7674 25.5784Z" fill="#A4A538"/>
<path d="M23.1309 26.8705C23.1309 26.8705 23.2744 26.795 23.2744 26.9536C23.2744 27.1122 23.0856 27.2482 22.8892 27.3464C22.7985 27.3917 22.7456 27.4295 22.723 27.4521C22.7079 27.4672 22.6928 27.4597 22.6928 27.437C22.7003 27.3086 22.723 27.0291 22.8589 26.8479C23.0327 26.6137 23.1611 26.6515 23.1309 26.8705Z" fill="#6B782B"/>
<path d="M24.0979 26.6057C24.0979 26.6057 23.9544 26.5 23.9242 26.6737C23.894 26.8474 24.0828 27.0363 24.2868 27.1798C24.3774 27.2478 24.4303 27.2931 24.4529 27.3233C24.468 27.3384 24.4907 27.3309 24.4907 27.3082C24.5058 27.1647 24.5285 26.8474 24.4076 26.6284C24.249 26.3338 24.1055 26.3564 24.0979 26.6057Z" fill="#A4A538"/>
<path d="M24.083 26.9157C24.083 26.9157 23.8262 27.2103 23.8111 27.5125C23.7884 27.8146 23.7733 27.1197 23.3352 26.7646" stroke="#6B782B" stroke-width="1.0575" stroke-miterlimit="10"/>
<path d="M21.6792 25.2744C21.6792 25.2744 21.5357 25.4633 21.2789 25.3349C21.2789 25.3349 21.4451 25.0856 21.6943 25.2291" fill="#ACB559"/>
<path d="M22.4221 25.402C22.4221 25.402 22.6789 25.6966 22.694 25.9988C22.7167 26.3009 22.7318 25.606 23.1699 25.251" stroke="#6B782B" stroke-width="1.0575" stroke-miterlimit="10"/>
<path d="M22.3976 25.063C22.3976 25.063 22.3221 24.912 22.2088 25.0026C22.0954 25.0932 22.1559 25.3198 22.2616 25.5238C22.307 25.622 22.3296 25.6749 22.3372 25.7126C22.3372 25.7353 22.3598 25.7429 22.3749 25.7277C22.4656 25.6522 22.6469 25.4634 22.662 25.2594C22.6771 24.9875 22.5336 24.9195 22.3976 25.063Z" fill="#6B782B"/>
<path d="M22.6706 24.9639C22.6706 24.9639 22.5724 24.8053 22.4591 24.9186C22.3382 25.0319 22.4364 25.266 22.5724 25.4775C22.6328 25.5757 22.663 25.6362 22.6706 25.6739C22.6781 25.6966 22.7008 25.7041 22.7159 25.689C22.8066 25.5984 22.9879 25.3793 22.9727 25.1527C22.9652 24.8506 22.8066 24.7826 22.6706 24.9639Z" fill="#A4A538"/>
<path d="M23.35 24.9418C23.35 24.9418 23.2064 24.8663 23.2064 25.0249C23.2064 25.1835 23.3953 25.3195 23.5917 25.4177C23.6823 25.463 23.7352 25.5008 23.7579 25.5234C23.773 25.5385 23.7881 25.531 23.7881 25.5083C23.7805 25.3799 23.7579 25.1004 23.6219 24.9191C23.4482 24.685 23.3197 24.7228 23.35 24.9418Z" fill="#6B782B"/>
<path d="M22.3836 24.677C22.3836 24.677 22.5271 24.5712 22.5574 24.745C22.5876 24.9187 22.3987 25.1075 22.1948 25.2511C22.1041 25.319 22.0512 25.3644 22.0286 25.3946C22.0135 25.4097 21.9908 25.4021 21.9908 25.3795C21.9757 25.236 21.953 24.9187 22.0739 24.6997C22.2325 24.4051 22.3761 24.4277 22.3836 24.677Z" fill="#A4A538"/>
<path d="M22.9797 24.5717C22.9797 24.5717 22.806 24.4282 22.7153 24.6019C22.6247 24.7756 22.8286 25.0098 23.0704 25.1986C23.1837 25.2893 23.2365 25.3497 23.2592 25.3875C23.2743 25.4101 23.3045 25.4101 23.3196 25.3799C23.3876 25.2364 23.5085 24.9116 23.4103 24.6548C23.2743 24.33 23.0628 24.3149 22.9797 24.5717Z" fill="#A4A538"/>
<path d="M22.6175 25.8559C22.6175 25.8559 22.474 25.7803 22.474 25.939C22.474 26.0976 22.6629 26.2335 22.8593 26.3317C22.9499 26.3771 23.0028 26.4148 23.0254 26.4375C23.0406 26.4526 23.0557 26.445 23.0557 26.4224C23.0481 26.294 23.0254 26.0145 22.8895 25.8332C22.7157 25.599 22.5873 25.6368 22.6175 25.8559Z" fill="#6B782B"/>
<path d="M21.6512 25.5922C21.6512 25.5922 21.7947 25.4865 21.8249 25.6602C21.8551 25.8339 21.6663 26.0228 21.4623 26.1663C21.3717 26.2343 21.3188 26.2796 21.2962 26.3098C21.281 26.3249 21.2584 26.3174 21.2584 26.2947C21.2433 26.1512 21.2206 25.8339 21.3415 25.6149C21.5001 25.3278 21.6436 25.3505 21.6512 25.5922Z" fill="#A4A538"/>
<path d="M21.6652 25.9001C21.6652 25.9001 21.9221 26.1947 21.9372 26.4968C21.9598 26.799 21.975 26.104 22.4131 25.749" stroke="#6B782B" stroke-width="1.0575" stroke-miterlimit="10"/>
<path d="M22.4358 26.8317C22.4358 26.8317 22.6926 27.1263 22.7077 27.4285C22.7304 27.7306 22.7455 27.0357 23.1836 26.6807" stroke="#6B782B" stroke-width="1.0575" stroke-miterlimit="10"/>
<path d="M22.4121 26.4908C22.4121 26.4908 22.3365 26.3397 22.2232 26.4303C22.1099 26.521 22.1704 26.7476 22.2761 26.9515C22.3214 27.0497 22.3441 27.1026 22.3517 27.1404C22.3517 27.163 22.3743 27.1706 22.3894 27.1555C22.4801 27.0799 22.6614 26.8911 22.6765 26.6872C22.684 26.4152 22.5405 26.3397 22.4121 26.4908Z" fill="#6B782B"/>
<path d="M22.6852 26.3854C22.6852 26.3854 22.587 26.2267 22.4737 26.34C22.3529 26.4533 22.4511 26.6875 22.587 26.899C22.6475 26.9972 22.6777 27.0576 22.6852 27.0954C22.6928 27.1181 22.7155 27.1256 22.7306 27.1105C22.8212 27.0199 23.0025 26.8008 22.9874 26.5742C22.9798 26.2721 22.8137 26.2116 22.6852 26.3854Z" fill="#A4A538"/>
<path d="M23.3568 26.3627C23.3568 26.3627 23.2133 26.2872 23.2133 26.4458C23.2133 26.6044 23.4021 26.7404 23.5985 26.8386C23.6892 26.8839 23.742 26.9217 23.7647 26.9443C23.7798 26.9594 23.7949 26.9519 23.7949 26.9292C23.7874 26.8008 23.7647 26.5213 23.6287 26.34C23.4625 26.1059 23.3341 26.1436 23.3568 26.3627Z" fill="#6B782B"/>
<path d="M22.3904 26.0971C22.3904 26.0971 22.534 25.9914 22.5642 26.1651C22.5944 26.3388 22.4056 26.5277 22.2016 26.6712C22.111 26.7392 22.0581 26.7845 22.0354 26.8147C22.0203 26.8298 21.9976 26.8223 21.9976 26.7996C21.9825 26.6561 21.9599 26.3388 22.0807 26.1198C22.2394 25.8327 22.3904 25.8554 22.3904 26.0971Z" fill="#A4A538"/>
<path d="M22.9944 25.9925C22.9944 25.9925 22.8206 25.8489 22.73 26.0227C22.6393 26.1964 22.8433 26.4306 23.085 26.6194C23.1983 26.7101 23.2512 26.7705 23.2738 26.8082C23.289 26.8309 23.3192 26.8309 23.3343 26.8007C23.4023 26.6572 23.5231 26.3324 23.4249 26.0756C23.289 25.7507 23.0699 25.7432 22.9944 25.9925Z" fill="#A4A538"/>
<path d="M22.6244 27.2837C22.6244 27.2837 22.4808 27.2081 22.4808 27.3668C22.4808 27.5254 22.6697 27.6614 22.8661 27.7596C22.9567 27.8049 23.0096 27.8427 23.0323 27.8653C23.0474 27.8804 23.0625 27.8729 23.0625 27.8502C23.0549 27.7218 23.0323 27.4423 22.8963 27.261C22.7301 27.0193 22.6017 27.0646 22.6244 27.2837Z" fill="#6B782B"/>
<path d="M21.658 27.0198C21.658 27.0198 21.8015 26.914 21.8318 27.0877C21.862 27.2615 21.6731 27.4503 21.4692 27.5938C21.3785 27.6618 21.3257 27.7071 21.303 27.7374C21.2879 27.7525 21.2652 27.7449 21.2652 27.7223C21.2501 27.5787 21.2274 27.2615 21.3483 27.0424C21.5069 26.7478 21.658 26.7705 21.658 27.0198Z" fill="#A4A538"/>
<path d="M21.6799 27.3298C21.6799 27.3298 21.9367 27.6244 21.9518 27.9265C21.9745 28.2287 21.9896 27.5337 22.4277 27.1787" stroke="#6B782B" stroke-width="1.0575" stroke-miterlimit="10"/>
<path d="M22.4951 28.4548C22.4951 28.4548 22.2383 28.7494 22.2232 29.0515C22.2005 29.3537 22.1854 28.6587 21.7473 28.3037" stroke="#6B782B" stroke-width="1.0575" stroke-miterlimit="10"/>
<path d="M22.5168 28.1138C22.5168 28.1138 22.5923 27.9627 22.7056 28.0534C22.819 28.144 22.7585 28.3706 22.6528 28.5746C22.6074 28.6728 22.5848 28.7256 22.5772 28.7634C22.5772 28.7861 22.5546 28.7936 22.5395 28.7785C22.4488 28.703 22.2675 28.5141 22.2524 28.3102C22.2373 28.0383 22.3808 27.9627 22.5168 28.1138Z" fill="#6B782B"/>
<path d="M22.2455 28.0084C22.2455 28.0084 22.3437 27.8498 22.457 27.9631C22.5779 28.0764 22.4797 28.3105 22.3437 28.522C22.2833 28.6202 22.2531 28.6807 22.2455 28.7184C22.238 28.7411 22.2153 28.7487 22.2002 28.7335C22.1096 28.6429 21.9283 28.4238 21.9434 28.1972C21.9509 27.8951 22.1096 27.8347 22.2455 28.0084Z" fill="#A4A538"/>
<path d="M21.5645 27.9857C21.5645 27.9857 21.708 27.9102 21.708 28.0688C21.708 28.2275 21.5192 28.3634 21.3228 28.4616C21.2321 28.5069 21.1792 28.5447 21.1566 28.5674C21.1415 28.5825 21.1264 28.5749 21.1264 28.5523C21.1339 28.4239 21.1566 28.1444 21.2925 27.9631C21.4663 27.7289 21.5947 27.7667 21.5645 27.9857Z" fill="#6B782B"/>
<path d="M22.5325 27.7288C22.5325 27.7288 22.389 27.623 22.3587 27.7967C22.3285 27.9705 22.5174 28.1593 22.7213 28.3028C22.812 28.3708 22.8648 28.4161 22.8875 28.4463C22.9026 28.4615 22.9253 28.4539 22.9253 28.4312C22.9404 28.2877 22.9631 27.9705 22.8422 27.7514C22.6836 27.4568 22.54 27.4795 22.5325 27.7288Z" fill="#A4A538"/>
<path d="M21.9344 27.6155C21.9344 27.6155 22.1081 27.472 22.1987 27.6457C22.2894 27.8195 22.0854 28.0536 21.8437 28.2425C21.7304 28.3331 21.6775 28.3935 21.6549 28.4313C21.6397 28.454 21.6095 28.454 21.5944 28.4237C21.5264 28.2802 21.4056 27.9554 21.5038 27.6986C21.6397 27.3738 21.8513 27.3662 21.9344 27.6155Z" fill="#A4A538"/>
<path d="M22.2979 28.9076C22.2979 28.9076 22.4414 28.8321 22.4414 28.9907C22.4414 29.1493 22.2526 29.2853 22.0562 29.3835C21.9655 29.4288 21.9126 29.4666 21.89 29.4893C21.8749 29.5044 21.8598 29.4968 21.8598 29.4741C21.8673 29.3457 21.89 29.0663 22.0259 28.885C22.1997 28.6508 22.3281 28.6886 22.2979 28.9076Z" fill="#6B782B"/>
<path d="M23.2649 28.6428C23.2649 28.6428 23.1214 28.5371 23.0912 28.7108C23.0609 28.8845 23.2498 29.0734 23.4537 29.2169C23.5444 29.2849 23.5973 29.3302 23.6199 29.3604C23.635 29.3755 23.6577 29.368 23.6577 29.3453C23.6728 29.2018 23.6955 28.8845 23.5746 28.6655C23.416 28.3709 23.2725 28.3935 23.2649 28.6428Z" fill="#A4A538"/>
<path d="M23.25 28.9528C23.25 28.9528 22.9932 29.2474 22.9781 29.5496C22.9554 29.8517 22.9403 29.1568 22.5022 28.8018" stroke="#6B782B" stroke-width="1.0575" stroke-miterlimit="10"/>
<path d="M21.8828 31.2711L24.6777 29.6093V28.5518L21.8828 30.138V31.2711Z" fill="#875350"/>
<path d="M21.8838 31.2643L21.0529 30.8186V29.6855L21.8838 30.1312V31.2643Z" fill="#BA807B"/>
<path d="M21.416 28.6733L21.4085 28.5146L17.7977 28.5222V28.6733H21.416Z" fill="#BBBDBF"/>
<path d="M21.5217 30.8789L21.5293 31.03L17.7221 31.0375L17.7146 30.8865L21.5217 30.8789Z" fill="#BBBDBF"/>
<path d="M17.8054 30.4408L19.9658 28.4239L19.7921 28.2275L17.8054 30.0631V30.4408Z" fill="#BBBDBF"/>
<path d="M18.2884 29.6097C18.2884 29.6097 18.1977 29.5039 18.379 29.4964C18.5603 29.4888 18.7341 29.6323 18.8549 29.7834C18.9078 29.8514 18.9531 29.8892 18.9834 29.9118C18.9985 29.9194 18.9909 29.9345 18.9682 29.9345C18.8247 29.9345 18.4923 29.9194 18.2733 29.8287C17.9938 29.6928 18.0316 29.5946 18.2884 29.6097Z" fill="#BBBDBF"/>
<path d="M17.9408 28.877C17.9408 28.877 17.8199 28.9903 18.0239 29.0054C18.2278 29.0205 18.4393 28.877 18.598 28.7183C18.666 28.6428 18.7264 28.605 18.7642 28.5899C18.7868 28.5824 18.7793 28.5597 18.7491 28.5597C18.5829 28.5521 18.2127 28.5446 17.9634 28.6428C17.6235 28.7712 17.6537 28.8845 17.9408 28.877Z" fill="#BBBDBF"/>
<path d="M18.3038 28.8848C18.3038 28.8848 18.6589 29.0736 19.0064 29.0812C19.3614 29.0887 18.5456 29.1189 18.1528 29.4664" fill="#BBBDBF"/>
<path d="M18.2654 30.1385C18.2654 30.1385 18.5978 29.9346 18.9528 29.9119C19.3079 29.8893 18.492 29.8893 18.0615 29.5645" fill="#BBBDBF"/>
<path d="M17.8711 30.1691C17.8711 30.1691 17.6973 30.2296 17.8031 30.3127C17.9088 30.3958 18.1657 30.3429 18.4074 30.2598C18.5131 30.222 18.5811 30.2069 18.6264 30.1994C18.6491 30.1994 18.6567 30.1767 18.6416 30.1691C18.5509 30.1012 18.3243 29.9652 18.0901 29.9652C17.7729 29.9576 17.6898 30.071 17.8711 30.1691Z" fill="#BBBDBF"/>
<path d="M18.7857 29.9803C18.7857 29.9803 18.7026 30.0936 18.8839 30.086C19.0652 30.086 19.2238 29.935 19.3296 29.7839C19.3749 29.7159 19.4202 29.6781 19.4505 29.6555C19.4656 29.6404 19.458 29.6328 19.4278 29.6328C19.2843 29.6404 18.9519 29.663 18.7479 29.7688C18.4836 29.9123 18.5289 30.0105 18.7857 29.9803Z" fill="#BBBDBF"/>
<path d="M18.5136 30.7201C18.5136 30.7201 18.3852 30.6144 18.5816 30.5841C18.778 30.5539 19.0046 30.6974 19.1783 30.8485C19.2539 30.9165 19.3143 30.9543 19.3521 30.9769C19.3747 30.9845 19.3672 31.0071 19.3369 31.0071C19.1783 31.0222 18.8006 31.0449 18.5438 30.9618C18.2039 30.8485 18.2265 30.7352 18.5136 30.7201Z" fill="#BBBDBF"/>
<path d="M18.8689 30.7049C18.8689 30.7049 19.2013 30.501 19.5564 30.4783C19.9114 30.4557 19.0956 30.4557 18.665 30.1309" fill="#BBBDBF"/>
<path d="M20.1456 30.0566C20.1456 30.0566 20.5007 30.2455 20.8482 30.253C21.2032 30.2606 20.3874 30.2908 19.9946 30.6383" fill="#BBBDBF"/>
<path d="M19.7533 30.0483C19.7533 30.0483 19.572 29.9954 19.6778 29.9048C19.776 29.8141 20.0403 29.8595 20.2896 29.935C20.4029 29.9728 20.4709 29.9803 20.5087 29.9879C20.5313 29.9879 20.5389 30.003 20.5313 30.0181C20.4483 30.0861 20.2367 30.2371 20.0026 30.2447C19.6778 30.2598 19.5871 30.154 19.7533 30.0483Z" fill="#BBBDBF"/>
<path d="M19.6471 30.2597C19.6471 30.2597 19.4582 30.1918 19.5866 30.1011C19.7075 30.0105 19.987 30.0785 20.2438 30.1767C20.3571 30.222 20.4327 30.2371 20.478 30.2446C20.5007 30.2446 20.5082 30.2673 20.4931 30.2824C20.3874 30.3504 20.1381 30.4939 19.8812 30.4939C19.5262 30.4864 19.4431 30.3579 19.6471 30.2597Z" fill="#BBBDBF"/>
<path d="M19.6468 30.7747C19.6468 30.7747 19.5561 30.669 19.7374 30.6614C19.9187 30.6539 20.0925 30.7974 20.2133 30.9485C20.2662 31.0164 20.3115 31.0542 20.3417 31.0769C20.3569 31.0844 20.3493 31.0995 20.3266 31.0995C20.1831 31.0995 19.8507 31.0844 19.6317 30.9938C19.3522 30.8578 19.39 30.7596 19.6468 30.7747Z" fill="#BBBDBF"/>
<path d="M19.307 30.041C19.307 30.041 19.1861 30.1543 19.3901 30.1694C19.5941 30.1845 19.8056 30.041 19.9642 29.8824C20.0322 29.8069 20.0926 29.7691 20.1304 29.754C20.153 29.7464 20.1455 29.7238 20.1153 29.7238C19.9491 29.7162 19.5789 29.7087 19.3297 29.8069C18.9822 29.9353 19.02 30.0486 19.307 30.041Z" fill="#BBBDBF"/>
<path d="M19.2004 30.5012C19.2004 30.5012 19.0267 30.3728 19.2231 30.2973C19.4195 30.2217 19.699 30.3728 19.9331 30.5541C20.0389 30.6372 20.1144 30.6749 20.1598 30.6976C20.1824 30.7051 20.1824 30.7354 20.1598 30.7429C20.0011 30.7958 19.6234 30.894 19.3288 30.826C18.9285 30.7278 18.9134 30.5692 19.2004 30.5012Z" fill="#BBBDBF"/>
<path d="M20.6819 30.1927C20.6819 30.1927 20.5913 30.0869 20.7726 30.0794C20.9539 30.0718 21.1276 30.2154 21.2485 30.3664C21.3014 30.4344 21.3467 30.4722 21.3769 30.4948C21.392 30.5024 21.3845 30.5175 21.3618 30.5175C21.2183 30.5175 20.8859 30.5024 20.6668 30.4117C20.3873 30.2758 20.4251 30.1776 20.6819 30.1927Z" fill="#BBBDBF"/>
<path d="M20.3412 29.46C20.3412 29.46 20.2203 29.5733 20.4243 29.5884C20.6282 29.6035 20.8397 29.46 20.9984 29.3013C21.0664 29.2258 21.1268 29.188 21.1646 29.1729C21.1872 29.1654 21.1797 29.1427 21.1494 29.1427C20.9833 29.1352 20.6131 29.1276 20.3638 29.2258C20.0239 29.3542 20.0541 29.4675 20.3412 29.46Z" fill="#BBBDBF"/>
<path d="M20.6971 29.4678C20.6971 29.4678 21.0522 29.6566 21.3996 29.6642C21.7471 29.6717 20.9389 29.7019 20.546 30.0494" fill="#BBBDBF"/>
<path d="M21.8838 31.2726H20.9018L19.9198 30.8194L21.0529 30.2227V30.8194L21.8838 31.2726Z" fill="#BBBDBF"/>
<path d="M13.5368 21.5132C13.3933 21.6038 13.0231 21.8606 12.7134 22.0344C12.4264 22.2005 12.4339 22.3969 12.4339 22.3969C12.4339 22.3969 13.567 22.0721 13.8616 21.8078C14.058 21.6265 14.5264 20.9617 14.5264 20.9617L14.1487 20.501L13.5368 21.5132Z" fill="#FFC5B3"/>
<path d="M14.9805 19.9025C14.9805 19.9025 14.8294 19.7967 14.565 19.9025C14.3006 20.0082 14.0211 20.605 14.0211 20.6201C14.0211 20.6352 14.2855 20.9449 14.4819 20.96C14.6708 20.9826 14.9805 19.9025 14.9805 19.9025Z" fill="#FEBA2A"/>
<path d="M14.429 24.3613C14.429 24.3613 14.5046 24.8599 14.5121 25.0865C14.5121 25.3131 14.5197 25.4113 14.565 25.6832C14.6103 25.94 14.6783 26.9824 14.6783 27.3299C14.6783 27.6774 14.4668 27.9946 14.3913 28.1155C14.3157 28.2363 14.565 28.4327 14.7538 28.2514C14.9427 28.0702 14.9654 28.0324 15.0711 27.9795C15.1769 27.9191 15.26 27.6774 15.1693 27.4054C15.0862 27.1335 15.124 26.5972 15.2146 26.1289C15.3053 25.6606 15.1769 25.0638 15.2297 24.9203C15.2826 24.7843 14.429 24.3613 14.429 24.3613Z" fill="#FFA08D"/>
<path d="M14.3906 28.1138C14.3906 28.1138 14.1564 28.3102 14.0809 28.4008C14.0053 28.499 14.2471 28.635 14.4737 28.5519C14.7003 28.4688 14.8892 28.2573 15.078 28.0911C15.2593 27.9325 15.3046 27.8721 15.2971 27.6908C15.2895 27.6002 15.1989 27.502 15.1989 27.502C15.1989 27.502 15.1384 27.8721 14.8816 28.0307C14.6248 28.1893 14.5266 28.212 14.3906 28.1138Z" fill="#3A3A3A"/>
<path d="M15.1534 24.7687C15.1534 24.7687 15.1836 25.2673 15.1836 25.4939C15.1836 25.7205 15.2213 25.7885 15.2893 26.0453C15.3573 26.3021 15.4026 27.3898 15.4102 27.7373C15.4102 28.0848 15.1987 28.402 15.1231 28.5229C15.0476 28.6437 15.2969 28.8401 15.4857 28.6588C15.6746 28.4776 15.6972 28.4398 15.803 28.3869C15.9087 28.3265 15.9918 28.0848 15.9012 27.8128C15.8181 27.5409 15.8559 27.0046 15.9465 26.5363C16.0372 26.0679 15.8861 25.4712 15.9163 25.3201C15.9994 24.9576 16.1882 24.4062 15.9918 24.2853C15.7803 24.1569 15.1534 24.7687 15.1534 24.7687Z" fill="#FFC5B3"/>
<path d="M15.124 28.523C15.124 28.523 14.8898 28.7194 14.8143 28.81C14.7387 28.9082 14.9805 29.0442 15.2071 28.9611C15.4337 28.878 15.6226 28.6665 15.8114 28.5003C15.9927 28.3417 16.038 28.2813 16.0305 28.1C16.0229 28.0093 15.9323 27.9111 15.9323 27.9111C15.9323 27.9111 15.8718 28.2813 15.615 28.4399C15.3582 28.5985 15.2524 28.6212 15.124 28.523Z" fill="#3A3A3A"/>
<path d="M14.2851 22.6536C14.2851 22.6536 14.2625 23.0086 14.2549 23.4694C14.2473 24.0359 14.3304 24.7082 14.3304 24.7082C14.3304 24.7082 15.1689 25.3578 15.4711 25.252C15.9545 25.0783 16.1963 24.7006 16.1963 24.7006C16.1963 24.7006 16.2038 23.4089 15.9696 22.5705C15.7355 21.732 14.3078 22.2154 14.2851 22.6536Z" fill="#3A3A3A"/>
<path d="M16.2724 20.5605C16.2271 20.3868 15.6907 20.0167 15.6907 20.0167C15.6907 20.0167 15.3886 20.2584 15.2828 20.3415C15.1846 20.4246 15.0109 20.6285 14.9958 20.6436C14.9958 20.6134 15.0184 20.3415 15.1242 20.0544C15.1544 19.9638 15.1091 19.6994 15.1091 19.6994C15.1091 19.6994 15.0638 19.6919 15.0033 19.6768C14.9127 19.775 14.7314 20.0469 14.6332 20.1602C14.5425 20.2659 14.2404 20.6436 14.3461 20.9911C14.3763 21.0968 14.3461 21.1422 14.399 21.2706C14.4594 21.4141 14.4594 21.686 14.4519 21.8371C14.4443 22.0108 14.2857 22.4565 14.2857 22.4565C14.2857 22.4565 14.6785 22.9097 15.094 22.8946C15.585 22.8719 15.9325 22.5245 15.9325 22.5245C15.9325 22.5245 15.8116 21.7842 15.8343 21.4745C15.8267 21.4745 16.4159 21.1422 16.2724 20.5605Z" fill="#FFE36C"/>
<path d="M14.4208 20.4399L14.8741 19.7676L15.0176 19.8129C15.0176 19.8129 14.8665 20.032 14.7381 20.2435C14.6852 20.3341 14.5719 20.5456 14.5719 20.5456L14.4208 20.4399Z" fill="#E01B17"/>
<path d="M15.1987 20.7952C15.1987 20.7952 15.4858 20.3193 15.5462 20.1909C15.6066 20.07 15.652 19.9189 15.652 19.9189H15.735C15.7426 19.9189 15.803 19.9643 15.7577 20.1153C15.6973 20.3117 15.38 20.848 15.38 20.848L15.1987 20.7952Z" fill="#E01B17"/>
<path d="M14.4727 19.043C14.4727 19.043 14.45 19.2091 14.4954 19.4584C14.518 19.5793 14.5936 19.7303 14.5936 19.7303L15.1299 19.4811L14.4727 19.043Z" fill="#722B0C"/>
<path d="M15.0702 19.7379C15.0702 19.7379 15.0778 20.04 15.0174 20.2062C14.972 20.2742 14.9267 20.4932 14.9569 20.6896C15.0551 20.6368 15.2138 20.4555 15.312 20.3724C15.5386 20.1911 15.6292 20.0098 15.6292 20.0098L15.667 19.1562L15.0702 19.7379Z" fill="#FFA08D"/>
<path d="M15.6147 19.4276C15.5467 19.6996 15.2672 19.9262 15.1313 19.9942C14.8895 20.115 14.3985 19.5032 14.5572 18.982C14.7082 18.491 15.1766 18.5136 15.3805 18.6572C15.5392 18.7629 15.6903 19.1179 15.6147 19.4276Z" fill="#FFC5B3"/>
<path d="M15.7957 18.7708C15.7051 18.6197 15.5011 18.4234 15.3576 18.3705C15.0706 18.2647 14.8742 18.378 14.6249 18.6349C14.4738 18.7935 14.4058 18.9672 14.4209 19.2467C14.4209 19.2467 14.8515 19.5186 15.1008 19.564C15.2141 19.5791 15.3727 19.5035 15.4634 19.4582C15.4785 19.5866 15.5011 19.7301 15.5011 19.7981C15.5087 19.9341 15.4709 20.138 15.4709 20.138C15.4709 20.138 15.8411 20.0474 15.9393 19.8812C16.045 19.715 15.9619 19.0428 15.7957 18.7708Z" fill="#722B0C"/>
<path d="M14.2548 21.0902C14.2925 21.3017 14.3303 21.4377 14.3605 21.7776C14.3756 21.9589 14.2699 22.3517 14.2321 22.7143C14.1717 23.3941 14.1641 24.1192 14.1565 24.2477C14.149 24.7991 14.1565 25.4562 14.1565 25.4562C14.1565 25.4562 14.6551 26.0303 15.4634 25.8566C16.2716 25.6829 16.3094 25.3354 16.3094 25.3354C16.3094 25.3354 16.317 23.4092 16.2263 22.9862C16.1583 22.6387 15.9619 21.8834 15.9619 21.8834C15.9619 21.8834 15.8562 21.9287 15.758 21.9136C15.5767 21.8834 15.4407 21.8003 15.4029 21.4302C15.3803 21.2413 15.3652 20.9996 15.3803 20.8259C14.9799 20.6823 14.6778 20.5917 14.436 20.418C14.2623 20.6899 14.217 20.8787 14.2548 21.0902Z" fill="#078F61"/>
<path d="M14.4586 20.8027C14.4284 20.9765 14.4435 21.5128 14.7457 21.5959C15.0252 21.6714 15.0931 21.339 15.1611 21.0898C14.7985 21.0067 14.4586 20.8027 14.4586 20.8027Z" fill="#F44E4E"/>
<path d="M7.24515 22.9629V27.9936L15.0635 32.5333V27.7141L7.24515 22.9629Z" fill="#7B562F"/>
<path d="M17.8887 26.0596L15.0635 27.7138V32.533L17.8887 30.8712V26.0596Z" fill="#EBC77F"/>
<path d="M17.6162 26.5579L9.41264 21.7992V21.4668L17.6162 26.2256V26.5579Z" fill="#AA9165"/>
<path d="M17.6168 26.2256L18.4326 25.7422V26.0821L17.6168 26.558V26.2256Z" fill="#C1A36C"/>
<path d="M9.41127 21.4668L10.2271 20.9834L18.4307 25.7422L17.6148 26.2256L9.41127 21.4668Z" fill="#EBC77F"/>
<path d="M16.6201 27.1234L8.41654 22.3646V22.0322L16.6201 26.7835V27.1234Z" fill="#AA9165"/>
<path d="M16.6207 26.7845L17.4365 26.3086V26.6485L16.6207 27.1244V26.7845Z" fill="#C1A36C"/>
<path d="M8.41615 22.0342L9.23198 21.5508L17.4355 26.3096L16.6197 26.7855L8.41615 22.0342Z" fill="#EBC77F"/>
<path d="M15.6445 27.7074L7.44096 22.9486V22.6162L15.6445 27.3674V27.7074Z" fill="#AA9165"/>
<path d="M15.6451 27.3665L16.4609 26.8906V27.2305L15.6451 27.7064V27.3665Z" fill="#C1A36C"/>
<path d="M7.44154 22.6162L8.25737 22.1328L16.4609 26.8916L15.6451 27.3675L7.44154 22.6162Z" fill="#EBC77F"/>
<path d="M14.665 28.2725L6.46147 23.5137V23.1738L14.665 27.9326V28.2725Z" fill="#AA9165"/>
<path d="M14.6644 27.9329L15.4727 27.457V27.7894L14.6644 28.2728V27.9329Z" fill="#C1A36C"/>
<path d="M6.45984 23.1751L7.27566 22.6992L15.4717 27.458L14.6634 27.9339L6.45984 23.1751Z" fill="#EBC77F"/>
<path d="M14.2705 28.7571L7.85722 25.0332V27.4353L14.2705 31.1592V28.7571Z" fill="white"/>
<path d="M12.3586 25.1468L13.0157 25.5245L13.8467 25.041L13.1744 24.6709L12.3586 25.1468Z" fill="white"/>
<path d="M12.548 24.9202L13.039 25.2072L13.666 24.8447L13.1599 24.5576L12.548 24.9202Z" fill="#FFE36C"/>
<path d="M13.039 25.2073V25.4188L13.666 25.0487V24.8447L13.039 25.2073Z" fill="#FEBA2A"/>
<path d="M12.5481 24.9209V25.1324L13.0391 25.4194V25.2079L12.5481 24.9209Z" fill="#FFC152"/>
<path d="M13.341 24.5647L14.0057 24.95L14.8291 24.4665L14.1568 24.0889L13.341 24.5647Z" fill="white"/>
<path d="M13.5305 24.3384L14.0215 24.6255L14.6484 24.2629L14.1423 23.9834L13.5305 24.3384Z" fill="#FFE36C"/>
<path d="M14.0215 24.6243V24.8358L14.6484 24.4732V24.2617L14.0215 24.6243Z" fill="#FEBA2A"/>
<path d="M13.5305 24.3369V24.5484L14.0215 24.8355V24.624L13.5305 24.3369Z" fill="#FFC152"/>
<path d="M11.3537 25.6973L12.0109 26.075L12.8418 25.5915L12.1695 25.2139L11.3537 25.6973Z" fill="white"/>
<path d="M11.5432 25.471L12.0342 25.758L12.6611 25.3879L12.155 25.1084L11.5432 25.471Z" fill="#FFE36C"/>
<path d="M12.0342 25.7569V25.9608L12.6611 25.5982V25.3867L12.0342 25.7569Z" fill="#FEBA2A"/>
<path d="M11.5432 25.4717V25.6756L12.0342 25.9627V25.7587L11.5432 25.4717Z" fill="#FFC152"/>
<path d="M16.3167 20.5456C16.2034 20.2964 15.9012 20.591 15.8559 20.7043C15.7577 20.9686 15.7879 21.3765 15.7652 21.588C15.7501 21.724 15.7803 22.1168 15.7803 22.1168C15.7803 22.1168 15.3573 23.1894 15.1911 23.3631C15.0249 23.5293 14.8588 23.5897 14.7757 23.6577C14.6926 23.7257 14.7001 23.8164 14.7681 23.771C14.8361 23.7257 14.957 23.6804 14.957 23.6804C14.957 23.6804 14.7757 23.8541 14.7605 24.0052C14.753 24.0958 14.8285 24.1865 15.0929 24.0505C15.2818 23.9523 15.4706 23.5444 15.5537 23.4538C15.6444 23.3631 16.09 22.8193 16.1958 22.5322C16.2411 22.434 16.5282 21.014 16.3167 20.5456Z" fill="#FFC5B3"/>
<path d="M12.6301 22.193C12.6301 22.193 12.5848 22.3818 12.5697 22.48C12.5545 22.5707 12.7358 22.5556 12.7812 22.3516C12.8265 22.1477 12.8643 22.125 12.8643 22.125L12.6301 22.193Z" fill="#FFC5B3"/>
<path d="M16.0526 20.304C15.9317 20.2663 15.7731 20.7044 15.7353 20.9914C15.6976 21.2785 15.6976 21.4295 15.6976 21.4295C15.6976 21.4295 15.894 21.5957 16.1433 21.5731C16.4001 21.5504 16.4076 21.4295 16.4681 21.3464C16.4681 21.1425 16.5663 20.4627 16.0526 20.304Z" fill="#FEBA2A"/>
<path d="M13.0828 26.6566C13.0677 26.6566 13.0601 26.6491 13.0601 26.634V26.1203C13.0601 26.1052 13.0677 26.0977 13.0828 26.0977C13.0979 26.0977 13.1055 26.1052 13.1055 26.1203V26.634C13.1055 26.6491 13.0904 26.6566 13.0828 26.6566Z" fill="#722B0C"/>
<path d="M13.4307 25.8557L12.7508 25.4629V26.0445L13.4307 26.4373V25.8557Z" fill="#B0C8EA"/>
<path d="M13.2188 26.6554C13.2188 26.7007 13.1508 26.7384 13.0752 26.7384C12.9921 26.7384 12.9317 26.7007 12.9317 26.6554C12.9317 26.61 12.9997 26.5723 13.0752 26.5723C13.1583 26.5723 13.2188 26.61 13.2188 26.6554Z" fill="#722B0C"/>
<path d="M7.57695 23.3637C7.56184 23.3637 7.55429 23.3561 7.55429 23.341V22.8273C7.55429 22.8122 7.56184 22.8047 7.57695 22.8047C7.59206 22.8047 7.59961 22.8122 7.59961 22.8273V23.341C7.59961 23.3561 7.5845 23.3637 7.57695 23.3637Z" fill="#722B0C"/>
<path d="M7.9248 22.5627L7.24495 22.1699V22.7516L7.9248 23.1443V22.5627Z" fill="#B0C8EA"/>
<path d="M7.71387 23.3634C7.71387 23.4087 7.64588 23.4465 7.57034 23.4465C7.48725 23.4465 7.42682 23.4087 7.42682 23.3634C7.42682 23.318 7.4948 23.2803 7.57034 23.2803C7.64588 23.2803 7.71387 23.318 7.71387 23.3634Z" fill="#722B0C"/>
<path d="M10.7803 23.9674C10.7803 24.0807 10.6141 24.1789 10.4026 24.1789C10.1911 24.1789 10.0249 24.0807 10.0249 23.9674C10.0249 23.8541 10.1911 23.7559 10.4026 23.7559C10.6065 23.7559 10.7803 23.8465 10.7803 23.9674Z" fill="#D1D1D1"/>
<path d="M10.7798 23.9668L10.0244 23.9668L10.0244 23.438L10.7798 23.438L10.7798 23.9668Z" fill="#D1D1D1"/>
<path d="M10.7793 23.4312C10.7793 23.5445 10.6131 23.6427 10.4016 23.6427C10.1901 23.6427 10.0239 23.5445 10.0239 23.4312C10.0239 23.3179 10.1901 23.2197 10.4016 23.2197C10.6056 23.2197 10.7793 23.3179 10.7793 23.4312Z" fill="#EFEFEF"/>
<path d="M10.2057 23.7792C10.183 23.7716 10.1679 23.7641 10.1453 23.7565C10.1301 23.749 10.1075 23.7339 10.0924 23.7263C10.0471 23.6886 10.0244 23.6508 10.0244 23.6055V23.8472C10.0244 23.9605 10.1906 24.0587 10.3945 24.0587V23.817C10.3265 23.817 10.2586 23.8019 10.2057 23.7792Z" fill="white"/>
<path d="M10.8184 23.4539C10.8184 23.5823 10.6371 23.6881 10.4029 23.6881C10.1763 23.6881 9.98742 23.5823 9.98742 23.4539C9.98742 23.3255 10.1687 23.2197 10.4029 23.2197C10.6295 23.2197 10.8184 23.3255 10.8184 23.4539Z" fill="#078F61"/>
<path d="M10.0035 23.3018C10.0035 23.3018 9.95067 23.3848 10.0035 23.4982C10.0262 23.551 10.0791 23.4755 10.0715 23.4151C10.064 23.3773 10.0035 23.3018 10.0035 23.3018Z" fill="#078F61"/>
<path d="M10.8028 23.2949C10.8028 23.2949 10.8632 23.3856 10.8103 23.4989C10.7877 23.5518 10.7348 23.4762 10.7424 23.4158C10.7499 23.378 10.8028 23.2949 10.8028 23.2949Z" fill="#078F61"/>
<path d="M10.8174 23.3553C10.8174 23.4837 10.6361 23.5894 10.4019 23.5894C10.1753 23.5894 9.98645 23.4837 9.98645 23.3553C9.98645 23.2268 10.1677 23.1211 10.4019 23.1211C10.6285 23.1286 10.8174 23.2268 10.8174 23.3553Z" fill="#85C497"/>
<path d="M11.5049 24.3756C11.5049 24.4889 11.3387 24.5871 11.1272 24.5871C10.9157 24.5871 10.7495 24.4889 10.7495 24.3756C10.7495 24.2623 10.9157 24.1641 11.1272 24.1641C11.3387 24.1641 11.5049 24.2623 11.5049 24.3756Z" fill="#D1D1D1"/>
<path d="M11.5005 24.3799L10.7451 24.3799L10.7451 23.8511L11.5005 23.8511L11.5005 24.3799Z" fill="#D1D1D1"/>
<path d="M11.1272 24.0578C10.9186 24.0578 10.7495 23.9631 10.7495 23.8463C10.7495 23.7295 10.9186 23.6348 11.1272 23.6348C11.3358 23.6348 11.5049 23.7295 11.5049 23.8463C11.5049 23.9631 11.3358 24.0578 11.1272 24.0578Z" fill="#EFEFEF"/>
<path d="M10.9303 24.1952C10.9076 24.1877 10.8925 24.1801 10.8699 24.1726C10.8548 24.165 10.8321 24.1499 10.817 24.1423C10.7717 24.1046 10.749 24.0668 10.749 24.0215V24.2632C10.749 24.3765 10.9152 24.4747 11.1191 24.4747V24.233C11.0512 24.2254 10.9832 24.2179 10.9303 24.1952Z" fill="white"/>
<path d="M11.1265 24.1031C10.8971 24.1031 10.7111 23.9983 10.7111 23.8689C10.7111 23.7396 10.8971 23.6348 11.1265 23.6348C11.356 23.6348 11.542 23.7396 11.542 23.8689C11.542 23.9983 11.356 24.1031 11.1265 24.1031Z" fill="#E01B17"/>
<path d="M10.7262 23.7178C10.7262 23.7178 10.6733 23.8009 10.7262 23.9142C10.7489 23.967 10.8017 23.8915 10.7942 23.8311C10.7866 23.7933 10.7262 23.7178 10.7262 23.7178Z" fill="#E01B17"/>
<path d="M11.5196 23.7109C11.5196 23.7109 11.58 23.8016 11.5271 23.9149C11.5045 23.9678 11.4516 23.8922 11.4591 23.8318C11.4667 23.794 11.5196 23.7109 11.5196 23.7109Z" fill="#E01B17"/>
<path d="M11.1265 24.0054C10.8971 24.0054 10.7111 23.9006 10.7111 23.7713C10.7111 23.6419 10.8971 23.5371 11.1265 23.5371C11.356 23.5371 11.542 23.6419 11.542 23.7713C11.542 23.9006 11.356 24.0054 11.1265 24.0054Z" fill="#EF3026"/>
<path d="M9.87305 24.4644C9.87305 24.5777 9.70686 24.6759 9.49535 24.6759C9.28384 24.6759 9.11766 24.5777 9.11766 24.4644C9.11766 24.3511 9.28384 24.2529 9.49535 24.2529C9.69931 24.2529 9.87305 24.3436 9.87305 24.4644Z" fill="#D1D1D1"/>
<path d="M9.86868 24.4658L9.11328 24.4658L9.11328 23.9371L9.86868 23.9371L9.86868 24.4658Z" fill="#D1D1D1"/>
<path d="M9.87207 23.9283C9.87207 24.0416 9.70588 24.1398 9.49437 24.1398C9.28286 24.1398 9.11668 24.0416 9.11668 23.9283C9.11668 23.815 9.28286 23.7168 9.49437 23.7168C9.69833 23.7168 9.87207 23.815 9.87207 23.9283Z" fill="#EFEFEF"/>
<path d="M9.29846 24.2821C9.27579 24.2746 9.26069 24.267 9.23803 24.2595C9.22292 24.2519 9.20026 24.2368 9.18515 24.2293C9.13982 24.1915 9.11716 24.1537 9.11716 24.1084V24.3501C9.11716 24.4634 9.28335 24.5616 9.4873 24.5616V24.3199C9.41932 24.3123 9.35133 24.2972 9.29846 24.2821Z" fill="white"/>
<path d="M9.90332 23.951C9.90332 24.0794 9.72203 24.1851 9.48786 24.1851C9.26124 24.1851 9.07239 24.0794 9.07239 23.951C9.07239 23.8225 9.25368 23.7168 9.48786 23.7168C9.72203 23.7168 9.90332 23.8225 9.90332 23.951Z" fill="#E01B17"/>
<path d="M9.09437 23.7998C9.09437 23.7998 9.04149 23.8829 9.09437 23.9962C9.11703 24.0491 9.16991 23.9735 9.16235 23.9131C9.1548 23.8753 9.09437 23.7998 9.09437 23.7998Z" fill="#E01B17"/>
<path d="M9.88775 23.793C9.88775 23.793 9.94818 23.8836 9.8953 23.9969C9.87264 24.0498 9.81977 23.9743 9.82732 23.9138C9.83487 23.8761 9.88775 23.793 9.88775 23.793Z" fill="#E01B17"/>
<path d="M9.90234 23.8601C9.90234 23.9886 9.72105 24.0943 9.48688 24.0943C9.26026 24.0943 9.07141 23.9886 9.07141 23.8601C9.07141 23.7317 9.25271 23.626 9.48688 23.626C9.72105 23.626 9.90234 23.7317 9.90234 23.8601Z" fill="#EF3026"/>
<path d="M10.219 25.0871C10.0104 25.0871 9.84129 24.9924 9.84129 24.8756C9.84129 24.7588 10.0104 24.6641 10.219 24.6641C10.4276 24.6641 10.5967 24.7588 10.5967 24.8756C10.5967 24.9924 10.4276 25.0871 10.219 25.0871Z" fill="#D1D1D1"/>
<path d="M10.5962 24.8809L9.84082 24.8809L9.84082 24.3521L10.5962 24.3521L10.5962 24.8809Z" fill="#D1D1D1"/>
<path d="M10.5879 24.3463C10.5879 24.4596 10.4217 24.5578 10.2102 24.5578C9.99868 24.5578 9.8325 24.4596 9.8325 24.3463C9.8325 24.233 9.99868 24.1348 10.2102 24.1348C10.4217 24.1348 10.5879 24.233 10.5879 24.3463Z" fill="#EFEFEF"/>
<path d="M10.0231 24.6942C10.0004 24.6867 9.98529 24.6791 9.96263 24.6716C9.94753 24.664 9.92486 24.6489 9.90976 24.6414C9.86443 24.6036 9.84177 24.5658 9.84177 24.5205V24.7622C9.84177 24.8755 10.008 24.9737 10.2119 24.9737V24.732C10.1364 24.7245 10.0759 24.7169 10.0231 24.6942Z" fill="white"/>
<path d="M10.6289 24.3699C10.6289 24.4983 10.4476 24.6041 10.2134 24.6041C9.98682 24.6041 9.79797 24.4983 9.79797 24.3699C9.79797 24.2415 9.97927 24.1357 10.2134 24.1357C10.4476 24.1357 10.6289 24.2415 10.6289 24.3699Z" fill="#E01B17"/>
<path d="M9.81409 24.2178C9.81409 24.2178 9.76121 24.3009 9.81409 24.4142C9.83675 24.467 9.88963 24.3915 9.88208 24.3311C9.87453 24.2933 9.81409 24.2178 9.81409 24.2178Z" fill="#E01B17"/>
<path d="M10.6133 24.2109C10.6133 24.2109 10.6738 24.3016 10.6209 24.4149C10.5982 24.4678 10.5454 24.3922 10.5529 24.3318C10.5605 24.294 10.6133 24.2109 10.6133 24.2109Z" fill="#E01B17"/>
<path d="M10.6289 24.2713C10.6289 24.3997 10.4476 24.5054 10.2134 24.5054C9.98682 24.5054 9.79797 24.3997 9.79797 24.2713C9.79797 24.1429 9.97927 24.0371 10.2134 24.0371C10.4476 24.0447 10.6289 24.1429 10.6289 24.2713Z" fill="#EF3026"/>
<path d="M12.0721 24.8685C12.057 24.8685 12.0494 24.861 12.0494 24.8459V24.3322C12.0494 24.3171 12.057 24.3096 12.0721 24.3096C12.0872 24.3096 12.0947 24.3171 12.0947 24.3322V24.8459C12.0947 24.8534 12.0872 24.8685 12.0721 24.8685Z" fill="#722B0C"/>
<path d="M12.4189 24.0654L11.7391 23.665V24.2542L12.4189 24.647V24.0654Z" fill="#B0C8EA"/>
<path d="M12.208 24.8682C12.208 24.9136 12.14 24.9513 12.0645 24.9513C11.9814 24.9513 11.921 24.9136 11.921 24.8682C11.921 24.8229 11.9889 24.7852 12.0645 24.7852C12.1476 24.7852 12.208 24.8229 12.208 24.8682Z" fill="#722B0C"/>
<path d="M11.626 21.694L10.7195 22.2228L9.56375 21.5505L10.5004 21.0293L11.626 21.694Z" fill="#AA9165"/>
<path d="M11.376 21.3765L10.6886 21.7768L9.81987 21.2707L10.5224 20.8779L11.376 21.3765Z" fill="#85C497"/>
<path d="M10.6895 21.7766V22.0636L9.82075 21.5575V21.2705L10.6895 21.7766Z" fill="#078F61"/>
<path d="M11.376 21.377V21.664L10.6886 22.0643V21.7773L11.376 21.377Z" fill="#078F61"/>
<path d="M10.0918 21.8605L9.7141 22.0796L9.23065 21.8001L9.62345 21.5811L10.0918 21.8605Z" fill="#85C497"/>
<path d="M9.71582 22.0803V22.2389L9.23237 21.9594V21.8008L9.71582 22.0803Z" fill="#078F61"/>
<path d="M10.0928 21.8613V22.02L9.71508 22.239V22.0804L10.0928 21.8613Z" fill="#078F61"/>
<path d="M10.8623 22.2912L10.4846 22.5103L10.0012 22.2308L10.394 22.0117L10.8623 22.2912Z" fill="#85C497"/>
<path d="M10.4844 22.51V22.6686L10.0009 22.3891V22.2305L10.4844 22.51Z" fill="#078F61"/>
<path d="M10.8633 22.292V22.4506L10.4856 22.6697V22.511L10.8633 22.292Z" fill="#078F61"/>
<path d="M8.9209 22.6232L8.5432 22.8423L8.05975 22.5628L8.45255 22.3438L8.9209 22.6232Z" fill="#85C497"/>
<path d="M8.54492 22.842V23.0006L8.06147 22.7211V22.5625L8.54492 22.842Z" fill="#078F61"/>
<path d="M8.92188 22.624V22.7827L8.54418 23.0017V22.8431L8.92188 22.624Z" fill="#078F61"/>
<path d="M9.77441 23.1369L9.39672 23.356L8.91327 23.0765L9.30607 22.8574L9.77441 23.1369Z" fill="#85C497"/>
<path d="M9.39551 23.3557V23.5143L8.91205 23.2348V23.0762L9.39551 23.3557Z" fill="#078F61"/>
<path d="M9.77441 23.1367V23.2953L9.39672 23.5144V23.3558L9.77441 23.1367Z" fill="#078F61"/>
<path d="M13.529 26.1648L15.2664 27.177L17.457 25.8928L15.6819 24.9033L13.529 26.1648Z" fill="#AA9165"/>
<path d="M14.0125 25.568L15.3193 26.3233L16.9736 25.364L15.6366 24.6162L14.0125 25.568Z" fill="#85C497"/>
<path d="M15.3193 26.3226V26.8816L16.9736 25.9147V25.3633L15.3193 26.3226Z" fill="#078F61"/>
<path d="M14.0125 25.5684V26.1198L15.3193 26.8827V26.3237L14.0125 25.5684Z" fill="#078F61"/>
<path d="M13.4747 22.752L13.6484 23.4998L13.0366 23.8321L13.0668 23.1901L13.4747 22.752Z" fill="#AA9165"/>
<path d="M13.8379 22.3061L12.4782 21.5205L11.1713 22.9708L12.5311 23.7639L13.8379 22.3061Z" fill="#D1D1D1"/>
<path d="M12.5391 23.7641V23.8623L11.1794 23.0843V22.9785L12.5391 23.7641Z" fill="#AA9165"/>
<path d="M13.8301 22.3057V22.4265L12.5384 23.8617V23.7635L13.8301 22.3057Z" fill="#AA9165"/>
<path d="M13.0674 23.2734L13.0296 23.8324L12.735 23.6436L13.0674 23.2734Z" fill="#7B562F"/>
<path d="M13.4844 22.3598L12.9783 22.0576L12.8423 22.2087L13.356 22.5108L13.4844 22.3598Z" fill="white"/>
<path d="M13.2031 22.7064L12.697 22.4043L12.561 22.5554L13.0747 22.8575L13.2031 22.7064Z" fill="white"/>
<path d="M12.75 21.9516L12.4856 21.793L12.4101 21.8685L12.682 22.0271L12.75 21.9516Z" fill="white"/>
<path d="M12.5537 22.1703L12.2893 22.0117L12.2213 22.0948L12.4857 22.2534L12.5537 22.1703Z" fill="white"/>
<path d="M12.3877 22.3354L12.1233 22.1768L12.0553 22.2598L12.3197 22.4185L12.3877 22.3354Z" fill="white"/>
<path d="M12.6143 23.0851L11.8513 22.6318L11.6549 22.8584L12.4179 23.3117L12.6143 23.0851Z" fill="white"/>
<path d="M25.1021 16.8518C23.4478 18.3626 21.7859 19.8733 20.1316 21.384C19.8899 21.6031 19.6557 21.8221 19.414 22.0412C19.2025 22.2376 18.8777 21.9203 19.0967 21.7239C20.7511 20.2132 22.4129 18.7025 24.0672 17.1917C24.309 16.9727 24.5431 16.7536 24.7849 16.5346C24.9964 16.3306 25.3136 16.6554 25.1021 16.8518Z" fill="#C1A36C"/>
<path d="M18.9752 20.5607L28.8936 14.835L18.9752 9.10938L9.06448 14.835L18.9752 20.5607Z" fill="#AA9165"/>
<path d="M18.975 20.659C18.9901 20.659 19.0127 20.6515 19.0278 20.6439L28.9461 14.9183C28.9764 14.9032 28.999 14.8654 28.999 14.8276C28.999 14.7899 28.9764 14.7596 28.9461 14.737L19.0278 9.01133C18.9976 8.99622 18.9598 8.99622 18.9221 9.01133L9.00376 14.737C8.97355 14.7521 8.95088 14.7899 8.95088 14.8276C8.95088 14.8654 8.97355 14.8956 9.00376 14.9183L18.9296 20.6439C18.9447 20.659 18.9598 20.659 18.975 20.659ZM28.6893 14.8352L18.975 20.44L9.2606 14.8352L18.975 9.22283L28.6893 14.8352Z" fill="#AA9165"/>
<path d="M18.9753 28.793C19.0357 28.793 19.0811 28.7402 19.0811 28.6722V19.0564C19.0811 18.9884 19.0357 18.9355 18.9753 18.9355C18.9149 18.9355 18.8695 18.9884 18.8695 19.0564V28.6722C18.8771 28.7402 18.9224 28.793 18.9753 28.793Z" fill="#C1A36C"/>
<path d="M18.7491 28.4094C18.7717 28.3943 18.7944 28.3868 18.8246 28.3717C18.7566 28.4623 18.6886 28.553 18.6131 28.6436C18.598 28.6814 18.6357 28.6738 18.6282 28.6134C18.6206 28.5454 18.6282 28.4774 18.6282 28.4094C18.6282 28.1753 18.6282 27.9487 18.6282 27.7145C18.6282 26.9516 18.6282 26.1811 18.6282 25.4182C18.6282 23.6884 18.6282 21.9662 18.6282 20.2364C18.6282 19.9569 18.6282 19.6699 18.6282 19.3904C18.6282 19.3073 18.6206 19.2242 18.6282 19.1487C18.6357 19.0882 18.598 19.0505 18.6131 19.0958C18.6811 19.1864 18.7491 19.2771 18.8246 19.3677C18.8019 19.3526 18.7793 19.3451 18.7491 19.33C18.9001 19.33 19.0512 19.33 19.2098 19.33C19.1872 19.3451 19.1645 19.3526 19.1343 19.3677C19.2023 19.2771 19.2703 19.1864 19.3458 19.0958C19.3609 19.058 19.3232 19.0656 19.3307 19.126C19.3383 19.194 19.3307 19.262 19.3307 19.33C19.3307 19.5641 19.3307 19.7907 19.3307 20.0249C19.3307 20.7878 19.3307 21.5583 19.3307 22.3212C19.3307 24.051 19.3307 25.7732 19.3307 27.503C19.3307 27.7825 19.3307 28.0695 19.3307 28.349C19.3307 28.4321 19.3383 28.5152 19.3307 28.5907C19.3232 28.6512 19.3609 28.6889 19.3458 28.6436C19.2778 28.553 19.2098 28.4623 19.1343 28.3717C19.157 28.3868 19.1796 28.3943 19.2098 28.4094C19.7311 28.6663 19.2778 29.4443 18.7491 29.195C18.2958 28.976 18.4242 28.281 18.4242 27.8656C18.4242 27.0498 18.4242 26.2415 18.4242 25.4258C18.4242 23.6129 18.4242 21.8076 18.4242 19.9947C18.4242 19.6472 18.3185 19.0656 18.5149 18.7483C18.8397 18.2196 19.512 18.5822 19.5347 19.1034C19.5422 19.262 19.5347 19.4206 19.5347 19.5868C19.5347 21.3015 19.5347 23.0237 19.5347 24.7384C19.5347 25.7052 19.5347 26.6721 19.5347 27.6314C19.5347 28.0695 19.6933 28.9609 19.2098 29.195C18.6886 29.4443 18.2278 28.6587 18.7491 28.4094Z" fill="#C1A36C"/>
<path d="M19.1484 11.248L19.0049 20.4333L9.26789 14.836L19.1484 11.248Z" fill="#C1A36C"/>
<path d="M19.1484 11.2483L18.952 9.00488L9.26789 14.8438L19.1484 11.2483Z" fill="#7B562F"/>
<path d="M28.7354 14.836L19.1494 11.248L19.0059 20.4333L28.7354 14.836Z" fill="#EBC77F"/>
<path d="M18.9747 9.10938L19.1485 11.2471L28.8779 14.9408L18.9747 9.10938Z" fill="#AA9165"/>
<path d="M13.3327 16.6937C14.9493 18.1213 16.5658 19.5489 18.1824 20.969C18.4165 21.173 18.6432 21.3769 18.8773 21.5809C19.0964 21.7773 18.7716 22.0945 18.5601 21.8981C16.9435 20.4705 15.327 19.0428 13.7104 17.6228C13.4763 17.4188 13.2497 17.2149 13.0155 17.0109C12.7964 16.8221 13.1137 16.5048 13.3327 16.6937Z" fill="#C1A36C"/>
<rect width="23" height="12" rx="2" fill="white"/>
</svg>
